<?xml version="1.0" standalone="no"?>
<!DOCTYPE svg PUBLIC "-//W3C//DTD SVG 20010904//EN"
 "http://www.w3.org/TR/2001/REC-SVG-20010904/DTD/svg10.dtd">
<svg version="1.0" xmlns="http://www.w3.org/2000/svg"
 width="396.890931pt" height="477.342268pt" viewBox="0 0 396.890931 477.342268"
 preserveAspectRatio="xMidYMid meet">
<metadata>
Created by potrace 1.12, written by Peter Selinger 2001-2015
</metadata>
<!-- Sfondo bianco sporco -->
<rect width="396.890931" height="477.342268" fill="#F5F2EC"/>
<g transform="translate(-255.109069,678.759048) scale(0.100000,-0.100000)"
fill="#1A3A6E" stroke="none">
<path d="M6035 6771 c-254 -69 -465 -256 -510 -454 -18 -76 -17 -155 6 -607
19 -383 88 -1199 174 -2057 19 -194 35 -358 35 -366 0 -16 -137 122 -256 258
-43 50 -162 185 -264 299 -102 115 -225 255 -275 311 -49 56 -132 149 -184
206 -52 57 -129 142 -170 189 -42 46 -103 114 -136 150 -209 228 -409 463
-988 1162 -123 149 -164 172 -221 127 -21 -17 -26 -28 -26 -67 0 -58 24 -300
45 -447 8 -60 26 -204 40 -320 37 -300 120 -916 154 -1150 79 -529 93 -626
120 -845 16 -129 33 -272 37 -317 l6 -82 -61 25 c-145 59 -326 55 -528 -11
-320 -103 -529 -342 -473 -540 18 -64 78 -128 153 -163 82 -39 83 -39 176 -52
242 -33 564 76 737 249 86 86 126 167 126 253 -1 101 -49 694 -77 944 -13 126
-27 256 -31 289 -6 66 -161 1406 -195 1687 -11 98 -19 183 -17 189 2 6 42 -31
88 -82 47 -52 110 -121 141 -154 75 -80 351 -384 414 -455 28 -31 113 -126
189 -211 151 -167 231 -256 376 -419 106 -119 189 -212 340 -379 203 -225 498
-558 684 -773 159 -186 191 -218 215 -218 36 0 71 34 71 68 0 43 -29 301 -145
1317 -13 121 -32 270 -40 330 -33 238 -130 1134 -141 1297 l-7 106 52 -25 c76
-38 215 -44 331 -14 171 43 332 147 432 278 59 78 88 156 88 234 0 103 -46
175 -145 227 -44 23 -64 26 -160 29 -84 2 -127 -2 -180 -16z"/>
<path d="M3533 6160 c-12 -5 -25 -21 -29 -35 -8 -34 5 -50 556 -665 136 -151
287 -320 336 -375 49 -55 164 -183 254 -284 91 -102 206 -230 255 -286 315
-353 599 -665 606 -665 4 0 14 -3 23 -6 24 -9 65 38 59 68 -3 15 -77 106 -175
214 -93 104 -231 259 -306 344 -75 85 -225 252 -332 370 -108 118 -339 375
-514 570 -612 681 -692 766 -709 759 -1 0 -12 -4 -24 -9z"/>
<path d="M3618 5069 c-12 -6 -18 -22 -18 -44 0 -35 62 -107 660 -769 124 -137
250 -277 280 -312 30 -34 192 -214 359 -401 167 -186 407 -453 533 -594 126
-141 240 -262 252 -269 36 -19 80 5 84 46 3 27 -10 46 -100 145 -277 308 -599
668 -648 724 -30 34 -93 105 -140 157 -165 183 -634 704 -709 787 -185 207
-417 460 -457 499 -43 43 -65 50 -96 31z"/>
</g>
</svg>
